<svg width="318" height="58" viewBox="0 0 318 58" fill="none" xmlns="http://www.w3.org/2000/svg">
<path d="M3.08271 14.1211L23.7981 8.67835C23.7981 8.67835 40.0844 3.98916 40.0844 21.2054C40.0844 34.6716 40.0844 57.8806 40.0844 57.8806C40.0844 57.8806 26.6028 60.0009 26.6028 46.3743C26.6028 32.7478 26.6028 24.8926 26.6028 24.8926C26.6028 24.8926 26.9239 20.7144 22.42 20.7144C17.9163 20.7144 -8.97407 39.8516 3.08271 14.1211Z" fill="url(#paint0_linear_6_178)"/>
<path opacity="0.57" d="M4.58505 15.2298L3.30121 19.5583L23.3045 12.9723C23.3045 12.9723 31.0079 10.247 33.7364 12.9723C33.7364 12.9723 31.65 8.32304 22.3416 10.8881C13.0331 13.4533 4.58505 15.2298 4.58505 15.2298Z" fill="white"/>
<path d="M56.8252 1.33514e-05L27.73 6.74601V6.78206C40.9987 5.35743 41.6807 17.7015 41.6807 17.7015C42.1519 21.4703 41.5204 28.2422 41.5204 28.2422C43.427 24.9689 45.3324 15.9349 46.188 13.6241C62.0631 6.51963 56.8252 1.33514e-05 56.8252 1.33514e-05Z" fill="#F27244"/>
<path d="M69.842 57.6337H57.6531V19.6735H80.9021C82.9516 19.6735 84.803 19.9874 86.4562 20.6152C88.1134 21.243 89.4584 22.0947 90.4912 23.1703C91.5239 24.2499 92.3205 25.4854 92.8809 26.8769C93.4373 28.2684 93.7155 29.7459 93.7155 31.3093C93.7155 33.6084 93.0851 35.7017 91.8242 37.589C90.5672 39.4723 88.7519 40.8558 86.3782 41.7395L94.8204 57.6337H81.1183L74.3753 43.7847H69.842V57.6337ZM69.842 28.3464V35.3518H77.8519C78.8086 35.3518 79.6192 35.0159 80.2837 34.3442C80.9482 33.6684 81.2804 32.8267 81.2804 31.8191C81.2804 30.8155 80.9482 29.9858 80.2837 29.33C79.6192 28.6742 78.8086 28.3464 77.8519 28.3464H69.842ZM139.427 57.6337H106.199V19.6735H139.055V28.7782H118.394V34.0023H136.083V42.7351H118.394V48.529H139.427V57.6337ZM163.835 57.6337H151.646V19.6735H163.835V35.8916L177.375 19.6735H192.506L178.858 35.2978L192.776 57.6337H178.372L170.47 43.7307L163.835 49.1468V57.6337ZM213.545 57.6337L200.06 19.6735H213.083L220.721 45.0503H220.931L228.623 19.6735H241.082L227.68 57.6337H213.545ZM264.517 57.6337H252.298V19.6735H264.517V57.6337ZM287.736 57.6337H275.247L289.141 19.6735H303.329L317.194 57.6337H304.272L302.651 52.2716H289.357L287.736 57.6337ZM295.908 30.2597L291.891 43.7847H300.117L296.154 30.2597H295.908Z" fill="#0B9EBF"/>
<defs>
<linearGradient id="paint0_linear_6_178" x1="20.0422" y1="8.09522" x2="20.0422" y2="58" gradientUnits="userSpaceOnUse">
<stop stop-color="#0B9EBF"/>
<stop offset="1" stop-color="#0B9EBF"/>
</linearGradient>
</defs>
</svg>
